<svg width="77" height="77" viewBox="0 0 77 77" fill="none" xmlns="http://www.w3.org/2000/svg">
<path d="M60.9583 16.0417V60.9583H16.0417V16.0417H60.9583ZM64.4875 9.625H12.5125C10.9083 9.625 9.625 10.9083 9.625 12.5125V64.4875C9.625 65.7708 10.9083 67.375 12.5125 67.375H64.4875C65.7708 67.375 67.375 65.7708 67.375 64.4875V12.5125C67.375 10.9083 65.7708 9.625 64.4875 9.625ZM35.2917 22.4583H54.5417V28.875H35.2917V22.4583ZM35.2917 35.2917H54.5417V41.7083H35.2917V35.2917ZM35.2917 48.125H54.5417V54.5417H35.2917V48.125ZM22.4583 22.4583H28.875V28.875H22.4583V22.4583ZM22.4583 35.2917H28.875V41.7083H22.4583V35.2917ZM22.4583 48.125H28.875V54.5417H22.4583V48.125Z" fill="#37A692"/>
</svg>
