<svg width="769" height="769" viewBox="0 0 769 769" fill="none" xmlns="http://www.w3.org/2000/svg">
<circle cx="384.5" cy="384.5" r="384" fill="white" stroke="#BEBEBE"/>
<path d="M508.761 158.967H137.263C128.351 158.967 122.063 166.162 122.063 175.068V548.214C130.12 554.853 128.213 553.282 138.176 561.492H508.761C517.673 561.492 524.873 554.297 524.873 545.391L508.761 158.967C509.544 157.402 506.746 162.993 508.761 158.967ZM508.761 561.492H399.952V405.614H452.317L460.172 344.883H399.952V306.09C399.952 288.479 404.836 276.504 430.062 276.504H462.236V222.164C456.647 221.409 437.564 219.748 415.309 219.748C368.885 219.748 337.113 248.076 337.113 300.052V344.833H284.647V405.564H337.164V561.492H138.176L122.063 548.214V175.068L122.566 170.802L123.35 168.376L124.8 165.625L126.696 163.286L128.821 161.514L131.68 160L133.141 159.514L137.263 158.967H330.517H508.761L517.511 368.817L524.873 545.391L524.654 548.058L523.896 550.936L522.773 553.356L521.087 555.771L520.076 556.863L517.987 558.6L515.582 559.987L513.336 560.836L511.968 561.174L508.761 561.492Z" fill="#949494"/>
</svg>
