<svg width="770" height="769" viewBox="0 0 770 769" fill="none" xmlns="http://www.w3.org/2000/svg">
<circle cx="384.928" cy="384.5" r="384" fill="white" stroke="#BEBEBE"/>
<path d="M570.952 364.22C570.805 350.905 570.756 337.492 570.707 324.128H531.061C530.913 337.443 530.815 350.807 530.717 364.22C517.371 364.269 504.123 364.368 490.874 364.516V404.41C504.123 404.558 517.469 404.657 530.717 404.805C530.864 418.12 530.864 431.483 530.963 444.798H570.658C570.707 431.483 570.805 418.119 570.903 404.706C584.25 404.558 597.498 404.509 610.746 404.361V364.466C597.547 364.368 584.201 364.368 570.952 364.22ZM310.895 364.417C310.846 380.345 310.895 396.323 310.944 412.251C337.539 413.139 364.182 412.744 390.777 413.139C379.05 472.463 298.824 491.695 256.381 452.935C212.711 418.958 214.772 344.445 260.159 312.885C291.906 287.439 336.999 293.702 368.745 315.745C381.209 304.156 392.887 291.729 404.123 278.908C377.725 257.752 345.34 242.662 310.895 244.24C238.962 241.824 172.868 305.142 171.691 377.485C167.078 436.612 205.743 494.555 260.306 515.464C314.673 536.521 384.398 522.171 419.138 473.055C442.052 442.037 447.008 402.093 444.309 364.565C399.805 364.22 355.35 364.269 310.895 364.417Z" fill="#949494"/>
</svg>
