<?xml version="1.0" encoding="UTF-8"?>
<svg id="Camada_2" data-name="Camada 2" xmlns="http://www.w3.org/2000/svg" viewBox="0 0 187.56 72.62">
  <defs>
    <style>
      .cls-1 {
        fill: #77af50;
      }
    </style>
  </defs>
  <g id="Camada_1-2" data-name="Camada 1">
    <path class="cls-1" d="M38.37,36.82c-.03,2.58,.63,5.3,2.3,7.7,1.88,2.71,4.48,4.31,7.75,4.86,2.08,.35,4.14,.24,6.19-.23,3.61-.83,5.88-3.17,7.31-6.47,.61-1.4,1.06-2.85,1.39-4.34,.1-.46,.27-.63,.77-.57,2,.27,4.01,.5,6.02,.73,.55,.06,.45,.43,.4,.76-.27,1.99-.75,3.93-1.58,5.77-2.96,6.5-8.14,9.98-15.08,11.04-2.67,.41-5.33,.3-7.96-.38-5.3-1.36-9.36-4.37-12.15-9.07-1.53-2.57-2.39-5.35-2.65-8.34-.46-5.47,1.05-10.32,4.51-14.55,2.51-3.07,5.73-5.12,9.52-6.22,4.49-1.3,8.96-1.15,13.32,.52,4.36,1.68,7.39,4.9,9.73,8.83,.28,.46,.5,.96,.78,1.42,.22,.37,.11,.57-.25,.77-2.73,1.5-5.45,3.02-8.18,4.54-5.51,3.05-11.02,6.1-16.51,9.16-.46,.26-.64,.12-.84-.27-.78-1.53-1.56-3.05-2.36-4.57-.21-.4-.09-.56,.26-.76,2.93-1.62,5.85-3.26,8.78-4.89,2.99-1.67,5.98-3.34,8.98-4.99,.43-.24,.38-.36,.07-.68-2.86-2.99-6.43-3.6-10.31-3.02-5.55,.82-9.38,5.11-10.08,10.75-.09,.73-.1,1.46-.12,2.51Z"/>
    <path class="cls-1" d="M106.53,44.07c0-3.46,.05-6.93-.01-10.39-.06-3.23-1.34-5.89-4-7.81-1.8-1.31-3.84-2-6.03-2.31-2.76-.38-5.43-.14-7.92,1.16-3.79,1.97-5.9,5.18-6.61,9.34-.48,2.82-.18,5.55,.94,8.19,1.89,4.43,6.4,7.39,11.22,7.34,3.1-.03,5.66-1.28,7.86-3.38,.49-.46,.92-.98,1.39-1.47,.09-.09,.16-.26,.32-.17,.11,.06,.08,.2,.08,.32,0,2.46,0,4.93,0,7.39,0,.31-.15,.49-.38,.66-3.42,2.66-7.27,3.69-11.58,3.29-4.49-.41-8.29-2.24-11.44-5.4-2.57-2.58-4.15-5.74-5.04-9.27-.44-1.75-.66-3.53-.65-5.31,.03-5.32,1.49-10.15,5.34-14.02,3.04-3.06,6.8-4.72,11.04-5.32,3.66-.52,7.27-.25,10.78,.92,4.8,1.59,8.34,4.64,10.35,9.32,.79,1.83,1.25,3.76,1.31,5.76,.23,7.29,.04,14.59,.11,21.88,0,.56-.19,.73-.74,.72-1.87-.03-3.74-.03-5.6,0-.6,.01-.75-.2-.75-.77,.02-3.56,.01-7.12,.01-10.68h0Z"/>
    <path class="cls-1" d="M187.55,29.85c0,3.75,.04,7.51-.01,11.26-.03,2.44-.45,4.82-1.49,7.06-1.23,2.64-3.15,4.62-5.65,6.06-1.39,.8-2.86,1.44-4.42,1.82-.64,.16-.79,.48-.79,1.1,.02,4.87,.01,9.74,.01,14.61,0,.84,0,.84-.83,.84-1.83,0-3.66-.02-5.49,.01-.59,.01-.76-.19-.76-.76,.02-4.77,.01-9.55,0-14.32,0-1.44,.18-1.17-1.18-1.58-2.48-.76-4.76-1.89-6.68-3.66-2.53-2.34-3.82-5.3-4.28-8.67-.17-1.26-.23-2.53-.23-3.8,0-7.14,0-14.28,0-21.42q0-.93,.91-.93c1.79,0,3.58,0,5.37,0,.76,0,.77,.02,.77,.78,0,7.43,0,14.86,0,22.29,0,1.65,.29,3.25,1.06,4.74,1.26,2.46,3.34,3.76,6.01,4.17,1.73,.27,3.46,.22,5.13-.4,3.16-1.18,4.84-3.53,5.34-6.8,.11-.69,.12-1.38,.12-2.07,0-7.26,0-14.51,0-21.77q0-.94,.96-.94c1.77,0,3.54,0,5.31,0,.77,0,.78,.02,.78,.77,0,3.87,0,7.74,0,11.61h0Z"/>
    <path class="cls-1" d="M129.65,55.51c-3.31,0-6.62,0-9.94,0-.81,0-.82,0-.82-.79,0-1.71,0-3.43,0-5.14,0-.78,.01-.79,.82-.79,6.2,0,12.4,0,18.6,0,.97,0,1.92-.06,2.82-.46,.82-.36,1.33-.94,1.56-1.81,.47-1.8,0-3.08-1.56-4.08-1.89-1.22-4.02-1.84-6.15-2.44-2.87-.8-5.77-1.54-8.51-2.75-2.21-.97-4.25-2.18-5.77-4.11-1.53-1.94-2-4.17-1.78-6.57,.22-2.37,1-4.5,2.86-6.11,1.82-1.57,4-2.34,6.33-2.74,1.16-.2,2.33-.25,3.51-.25,5.3,0,10.59,0,15.89,0,.84,0,.84,0,.84,.83,0,1.69,0,3.39,0,5.08,0,.76-.05,.81-.83,.81-5.91,0-11.82,0-17.73,0-.5,0-1,.06-1.48,.2-2.05,.58-2.78,3.28-1.32,4.84,1.09,1.16,2.53,1.66,3.96,2.17,2.22,.79,4.54,1.21,6.78,1.9,2.8,.87,5.55,1.85,8.02,3.48,3.7,2.44,5,5.91,4.3,10.18-.73,4.44-3.81,7.41-8.48,8.28-.89,.17-1.79,.26-2.7,.26-3.08,0-6.16,0-9.24,0Z"/>
    <path class="cls-1" d="M0,36.09c0-5.89-.02-11.78,0-17.67,.01-3.1,.39-6.15,1.66-9.02C4.04,4.09,8.12,1.03,13.88,.28,17.88-.23,21.92,.13,25.94,.04c.4,0,.55,.17,.54,.55,0,1.98-.01,3.96,0,5.95,0,.55-.32,.56-.72,.56-2.89,0-5.78-.03-8.66,.02-1.93,.03-3.78,.48-5.46,1.48-2.62,1.56-3.68,4.05-3.98,6.93-.29,2.76-.06,5.54-.13,8.31-.01,.59,.33,.58,.74,.58,5.58,0,11.17,0,16.75,0,1.65,0,1.44-.22,1.45,1.43,0,1.6,0,3.19,0,4.79,0,.84,0,.84-.83,.84-5.72,0-11.44,0-17.16,0q-.96,0-.96,.93c0,7.41,0,14.82,0,22.23q0,.87-.86,.87c-1.96,0-3.93,0-5.89,0-.76,0-.78-.02-.78-.77,0-6.22,0-12.43,0-18.65Z"/>
  </g>
</svg>