<?xml version="1.0" encoding="UTF-8"?>
<svg id="Camada_2" data-name="Camada 2" xmlns="http://www.w3.org/2000/svg" viewBox="0 0 166.27 58.28">
  <defs>
    <style>
      .cls-1 {
        fill: #fff;
      }
    </style>
  </defs>
  <g id="Camada_1-2" data-name="Camada 1">
    <path class="cls-1" d="M131.55,10.24c2.45,0,4.83,0,7.2,0,.74,0,1.49,.03,2.23-.01,.42-.02,.56,.14,.69,.5,1.51,4.56,3.06,9.1,4.56,13.66,.8,2.45,1.54,4.91,2.25,7.39,.17,.6,.24,1.23,.28,1.85,.03,.39,.1,.77,.16,1.15,.05,0,.1,0,.15,0,.06-.42,.12-.85,.18-1.27,.36-2.56,1.27-4.97,2.07-7.4,.92-2.82,1.85-5.64,2.78-8.45,1.45-4.42,5.57-7.41,10.22-7.42,.44,0,.89,0,1.33,0,.18,0,.36,0,.62,0-.06,.2-.1,.37-.16,.52-4.62,12.3-9.23,24.6-13.85,36.9-1.44,3.85-3.57,7.28-7.83,9.32-1.32,.63-2.75,1.01-4.2,1.17-2.1,.24-4.18,.15-6.24-.3-.16-.03-.35-.24-.35-.36-.03-.97-.13-1.73-.17-2.81-.14-4.41,.07-3.77,.21-4.06,.54,.08,1.08,.22,1.63,.23,1.15,.02,2.32,.1,3.44-.09,1.94-.34,3.4-1.53,4.32-3.25,.67-1.25,1.12-2.62,1.64-3.95,.06-.15-.01-.39-.08-.56-2.71-6.78-5.42-13.56-8.13-20.34-1.6-3.98-3.19-7.97-4.79-11.95-.05-.13-.09-.27-.16-.48Z"/>
    <path class="cls-1" d="M87.54,22.8c-.08-1.07-.07-2.1-.26-3.1-.37-1.93-1.9-3.16-3.9-3.33-2.81-.24-5.46,.43-8.07,1.36-.8,.29-1.59,.63-2.45,.97-.99-2.03-1.99-4.06-3.02-6.17,1.04-.45,2.03-.93,3.06-1.3,4.24-1.55,8.62-2.01,13.09-1.47,2.41,.29,4.7,.99,6.67,2.5,1.86,1.43,3.01,3.31,3.45,5.59,.24,1.21,.39,2.45,.39,3.68,.04,7.19,.02,14.39,.02,21.58,0,.15,0,.29,0,.47-.16,.01-.29,.03-.42,.03-1.85,0-3.7,0-5.55,0-.32,0-.46-.11-.57-.39-.47-1.26-.97-2.52-1.46-3.77-.05-.13-.12-.26-.21-.47-.17,.16-.3,.26-.41,.39-.97,1.15-2.03,2.21-3.29,3.05-1.51,1.01-3.19,1.52-4.96,1.65-1.44,.11-2.91,.16-4.34,.02-4.34-.45-7.42-3.09-8.29-7.44-.39-1.98-.41-3.96,.06-5.93,.63-2.61,2.23-4.43,4.6-5.62,2.27-1.14,4.72-1.68,7.22-1.87,2.68-.2,5.37-.26,8.06-.38,.15,0,.29-.02,.57-.05Zm-.06,5.35c-1.4,.05-2.72,.05-4.03,.17-1.19,.11-2.4,.25-3.55,.56-2.79,.74-4.09,2.71-3.77,5.58,.14,1.29,.8,2.24,2.06,2.72,1.17,.44,2.38,.46,3.6,.29,2.28-.33,4.04-1.41,5.06-3.55,.87-1.82,.54-3.77,.63-5.76Z"/>
    <path class="cls-1" d="M61.51,29.19h-21.46c.06,4.21,2.33,7.76,7.04,8.17,3.68,.32,7.22-.37,10.64-1.71,.61-.24,1.21-.5,1.82-.75,.01,0,.03,0,.09,.02,.01,.12,.03,.26,.03,.4,0,2.03,0,4.06,.01,6.09,0,.35-.12,.52-.43,.66-2.69,1.26-5.54,1.86-8.49,2.05-2.21,.14-4.42,.12-6.61-.2-6.56-.94-11.51-5.1-12.89-11.86-.53-2.59-.57-5.2-.32-7.82,.25-2.52,.83-4.94,2.03-7.17,1.67-3.08,4.13-5.25,7.45-6.43,2.91-1.04,5.89-1.17,8.93-.8,2.48,.3,4.78,1.07,6.79,2.58,2.21,1.66,3.67,3.84,4.53,6.44,.64,1.95,.83,3.96,.87,5.99,.03,1.32,0,2.64,0,3.96,0,.11-.02,.22-.04,.4Zm-8.53-6.1c0-1.52-.27-2.94-1.05-4.23-1.62-2.71-4.73-3.27-7.48-2.46-2.88,.85-4.18,4.09-4.16,6.69h12.68Z"/>
    <path class="cls-1" d="M23.85,18.78v7.55H9.1v17.23h-2.02c-3.91,0-7.08-3.17-7.08-7.08V0H24.95V2.23c0,2.93-2.38,5.31-5.31,5.31H9.12v11.25h14.73Z"/>
    <path class="cls-1" d="M103.93,34.89c1.89,.61,3.71,1.28,5.57,1.79,2.41,.66,4.86,1.08,7.38,.78,.81-.1,1.59-.28,2.27-.75,1.17-.81,1.44-2.57,.47-3.6-.51-.54-1.14-1.03-1.8-1.36-2.05-1.02-4.14-1.94-6.21-2.91-1.67-.78-3.33-1.58-4.77-2.78-1.74-1.45-2.65-3.32-2.89-5.54-.19-1.73-.12-3.42,.56-5.05,.76-1.84,2.1-3.12,3.82-4.04,2.04-1.09,4.25-1.53,6.54-1.71,3.22-.25,6.39,.03,9.49,.92,1.5,.43,2.95,1,4.48,1.52-.95,2.27-1.86,4.43-2.77,6.61-1.12-.43-2.21-.84-3.29-1.26-2.12-.81-4.29-1.27-6.57-1.13-.57,.03-1.15,.11-1.7,.27-1.76,.52-2.18,2.32-.81,3.56,.43,.39,.94,.75,1.47,.99,2.02,.92,4.07,1.78,6.1,2.68,1.7,.75,3.38,1.55,4.82,2.77,1.74,1.46,2.73,3.31,2.99,5.55,.22,1.85,.08,3.68-.58,5.45-.75,2.02-2.13,3.49-3.98,4.55-2.09,1.19-4.4,1.65-6.75,1.86-3.39,.3-6.76,.18-10.08-.58-1.17-.27-2.29-.7-3.43-1.09-.13-.04-.31-.23-.31-.35-.02-2.41-.01-4.81-.01-7.16Z"/>
  </g>
</svg>