<svg width="56" height="56" viewBox="0 0 56 56" fill="none" xmlns="http://www.w3.org/2000/svg">
<path d="M9.744 19.25H14.56V24.066C14.56 24.192 14.686 24.29 14.84 24.29H18.2C18.354 24.29 18.48 24.192 18.48 24.059V19.25H23.296C23.422 19.25 23.52 19.124 23.52 18.97V15.61C23.52 15.456 23.422 15.33 23.289 15.33H18.48V10.514C18.48 10.388 18.354 10.29 18.2 10.29H14.84C14.686 10.29 14.56 10.388 14.56 10.514V15.33H9.744C9.618 15.33 9.52 15.456 9.52 15.61V18.97C9.52 19.124 9.618 19.25 9.744 19.25ZM32.704 19.25H46.256C46.382 19.25 46.48 19.124 46.48 18.97V15.61C46.48 15.456 46.382 15.33 46.249 15.33H32.704C32.578 15.33 32.48 15.456 32.48 15.61V18.97C32.48 19.124 32.578 19.25 32.704 19.25ZM32.704 37.8H46.256C46.382 37.8 46.48 37.674 46.48 37.52V34.16C46.48 34.006 46.382 33.88 46.249 33.88H32.704C32.578 33.88 32.48 34.006 32.48 34.16V37.52C32.48 37.674 32.578 37.8 32.704 37.8ZM32.704 45.08H46.256C46.382 45.08 46.48 44.954 46.48 44.8V41.44C46.48 41.286 46.382 41.16 46.249 41.16H32.704C32.578 41.16 32.48 41.286 32.48 41.44V44.8C32.48 44.954 32.578 45.08 32.704 45.08ZM19.005 39.41L23.289 34.167C23.59 33.803 23.338 33.25 22.876 33.25H19.32C19.159 33.25 19.005 33.32 18.907 33.453L16.527 36.365L14.147 33.453C14.0969 33.3913 14.0341 33.3412 13.9628 33.3062C13.8915 33.2711 13.8134 33.252 13.734 33.25H10.171C9.709 33.25 9.457 33.803 9.758 34.167L14.042 39.41L9.653 44.786C9.345 45.15 9.597 45.703 10.059 45.703H13.615C13.776 45.703 13.93 45.633 14.028 45.5L16.513 42.455L18.998 45.5C19.103 45.626 19.257 45.703 19.411 45.703H22.967C23.429 45.703 23.681 45.15 23.38 44.786L19.005 39.41ZM53.76 0H2.24C1.001 0 0 1.001 0 2.24V53.76C0 54.999 1.001 56 2.24 56H53.76C54.999 56 56 54.999 56 53.76V2.24C56 1.001 54.999 0 53.76 0ZM51.24 51.24H4.76V4.76H51.24V51.24Z" fill="#4A95DB"/>
</svg>
