<svg width="84" height="77" viewBox="0 0 84 77" fill="none" xmlns="http://www.w3.org/2000/svg">
<path d="M73.5 59.7988L83.6152 67.7922C83.7703 67.9157 84 67.8043 84 67.6025V65.2743C84 65.1267 83.9314 64.9852 83.818 64.8948L74.0876 57.2055C73.9196 57.0724 73.7121 57 73.4985 57C73.2849 57 73.0774 57.0724 72.9094 57.2055L63.182 64.8948C63.0656 64.9852 63 65.1267 63 65.2743V67.6025C63 67.8043 63.2297 67.9157 63.3848 67.7922L73.5 59.7988ZM73.5 68.9548L83.6152 76.9483C83.7703 77.0718 84 76.9604 84 76.7586V74.4304C84 74.2828 83.9314 74.1413 83.818 74.0509L74.0876 66.3616C73.9196 66.2284 73.7121 66.1561 73.4985 66.1561C73.2849 66.1561 73.0774 66.2284 72.9094 66.3616L63.182 74.0509C63.0656 74.1413 63 74.2828 63 74.4304V76.7586C63 76.9604 63.2297 77.0718 63.3848 76.9483L73.5 68.9548Z" fill="#55A630"/>
<path d="M33 0C14.7763 0 0 15.0002 0 33.5C0 51.9998 14.7763 67 33 67C51.2237 67 66 51.9998 66 33.5C66 15.0002 51.2237 0 33 0ZM33 61.317C17.8701 61.317 5.59821 48.8591 5.59821 33.5C5.59821 18.1408 17.8701 5.68304 33 5.68304C48.1299 5.68304 60.4018 18.1408 60.4018 33.5C60.4018 48.8591 48.1299 61.317 33 61.317ZM36.5136 31.7652L34.6426 31.324V21.2815C37.4417 21.6703 39.1728 23.45 39.4674 25.6335C39.5042 25.9326 39.7547 26.1494 40.0493 26.1494H43.3567C43.7029 26.1494 43.9754 25.8429 43.946 25.4914C43.4967 20.8328 39.7179 17.8417 34.6721 17.3258V14.8806C34.6721 14.5516 34.4069 14.2824 34.0828 14.2824H32.0129C31.6888 14.2824 31.4237 14.5516 31.4237 14.8806V17.3482C26.2085 17.8642 22.1277 20.7879 22.1277 26.2467C22.1277 31.3016 25.796 33.7393 29.6484 34.674L31.4679 35.1451V45.8157C28.2121 45.3746 26.3853 43.6098 26.0096 41.2319C25.9654 40.9478 25.715 40.7384 25.4277 40.7384H22.0246C21.6783 40.7384 21.4058 41.0375 21.4353 41.389C21.7667 45.5017 24.8384 49.2854 31.3942 49.7714V52.1194C31.3942 52.4484 31.6594 52.7176 31.9835 52.7176H34.0754C34.3996 52.7176 34.6647 52.4484 34.6647 52.1119L34.65 49.7415C40.4176 49.2256 44.5426 46.0924 44.5426 40.4692C44.5353 35.2797 41.2868 32.9616 36.5136 31.7652ZM31.4605 30.5538C31.048 30.4342 30.7018 30.322 30.3556 30.1799C27.8658 29.2676 26.7094 27.7945 26.7094 25.8952C26.7094 23.1808 28.735 21.6329 31.4605 21.2815V30.5538ZM34.6426 45.8382V35.8405C34.871 35.9078 35.0772 35.9602 35.2908 36.005C38.775 37.0818 39.9462 38.5773 39.9462 40.873C39.9462 43.7968 37.7806 45.554 34.6426 45.8382Z" fill="#77AF51"/>
</svg>
