<svg width="217" height="185" viewBox="0 0 217 185" fill="none" xmlns="http://www.w3.org/2000/svg">
<rect x="0.502197" width="215.833" height="185" rx="2" fill="#CFE8FF"/>
<path d="M158.78 44.8527C159.455 45.53 159.834 46.4474 159.834 47.4037C159.834 48.3601 159.455 49.2774 158.78 49.9547L151.243 57.4992L136.789 43.0461L144.327 35.5016C145.004 34.8242 145.923 34.4436 146.881 34.4436C147.839 34.4436 148.758 34.8242 149.436 35.5016L158.78 44.8455V44.8527ZM146.133 62.6012L131.68 48.1481L82.4457 97.3898C82.0479 97.7875 81.7485 98.2725 81.5713 98.8063L75.7539 116.251C75.6484 116.569 75.6334 116.91 75.7106 117.236C75.7878 117.562 75.9542 117.861 76.1911 118.098C76.4281 118.334 76.7262 118.501 77.0523 118.578C77.3783 118.655 77.7194 118.64 78.0375 118.535L95.4824 112.717C96.0155 112.542 96.5004 112.245 96.8988 111.85L146.133 62.6012Z" fill="#4A95DB"/>
<path fill-rule="evenodd" clip-rule="evenodd" d="M53.9802 128.392C53.9802 131.267 55.1223 134.024 57.1551 136.057C59.188 138.09 61.9452 139.232 64.8201 139.232H144.312C147.187 139.232 149.944 138.09 151.977 136.057C154.01 134.024 155.152 131.267 155.152 128.392V85.0324C155.152 84.0741 154.771 83.1551 154.094 82.4775C153.416 81.7998 152.497 81.4191 151.539 81.4191C150.581 81.4191 149.661 81.7998 148.984 82.4775C148.306 83.1551 147.926 84.0741 147.926 85.0324V128.392C147.926 129.35 147.545 130.269 146.867 130.947C146.19 131.624 145.271 132.005 144.312 132.005H64.8201C63.8618 132.005 62.9427 131.624 62.2651 130.947C61.5875 130.269 61.2068 129.35 61.2068 128.392V48.8996C61.2068 47.9413 61.5875 47.0223 62.2651 46.3446C62.9427 45.667 63.8618 45.2863 64.8201 45.2863H111.793C112.751 45.2863 113.67 44.9057 114.348 44.228C115.025 43.5504 115.406 42.6314 115.406 41.6731C115.406 40.7148 115.025 39.7957 114.348 39.1181C113.67 38.4405 112.751 38.0598 111.793 38.0598H64.8201C61.9452 38.0598 59.188 39.2018 57.1551 41.2347C55.1223 43.2676 53.9802 46.0247 53.9802 48.8996V128.392Z" fill="#4A95DB"/>
</svg>
