<svg width="107" height="106" viewBox="0 0 107 106" fill="none" xmlns="http://www.w3.org/2000/svg">
<path d="M105.78 10.8527C106.455 11.53 106.834 12.4474 106.834 13.4037C106.834 14.3601 106.455 15.2774 105.78 15.9547L98.2425 23.4992L83.7894 9.0461L91.3267 1.50157C92.0043 0.824184 92.9232 0.443649 93.8813 0.443649C94.8394 0.443649 95.7583 0.824184 96.4359 1.50157L105.78 10.8455V10.8527ZM93.1334 28.6012L78.6802 14.1481L29.4457 63.3898C29.0479 63.7875 28.7485 64.2725 28.5713 64.8063L22.7539 82.2512C22.6484 82.5692 22.6334 82.9103 22.7106 83.2364C22.7878 83.5624 22.9542 83.8606 23.1911 84.0975C23.4281 84.3344 23.7262 84.5008 24.0523 84.578C24.3783 84.6552 24.7194 84.6403 25.0375 84.5348L42.4824 78.7174C43.0155 78.5422 43.5004 78.2453 43.8988 77.8502L93.1334 28.6012Z" fill="#4A95DB"/>
<path fill-rule="evenodd" clip-rule="evenodd" d="M0.980225 94.3918C0.980225 97.2667 2.12228 100.024 4.15514 102.057C6.18801 104.09 8.94516 105.232 11.8201 105.232H91.3122C94.1872 105.232 96.9443 104.09 98.9772 102.057C101.01 100.024 102.152 97.2667 102.152 94.3918V51.0324C102.152 50.0741 101.771 49.1551 101.094 48.4775C100.416 47.7998 99.4971 47.4191 98.5388 47.4191C97.5805 47.4191 96.6615 47.7998 95.9838 48.4775C95.3062 49.1551 94.9255 50.0741 94.9255 51.0324V94.3918C94.9255 95.3501 94.5448 96.2692 93.8672 96.9468C93.1896 97.6244 92.2706 98.0051 91.3122 98.0051H11.8201C10.8618 98.0051 9.94271 97.6244 9.26509 96.9468C8.58747 96.2692 8.20679 95.3501 8.20679 94.3918V14.8996C8.20679 13.9413 8.58747 13.0223 9.26509 12.3446C9.94271 11.667 10.8618 11.2863 11.8201 11.2863H58.7927C59.751 11.2863 60.6701 10.9057 61.3477 10.228C62.0253 9.55041 62.406 8.63136 62.406 7.67305C62.406 6.71475 62.0253 5.7957 61.3477 5.11808C60.6701 4.44046 59.751 4.05977 58.7927 4.05977H11.8201C8.94516 4.05977 6.18801 5.20182 4.15514 7.23469C2.12228 9.26755 0.980225 12.0247 0.980225 14.8996V94.3918Z" fill="#4A95DB"/>
</svg>
