<svg width="95" height="110" viewBox="0 0 95 110" fill="none" xmlns="http://www.w3.org/2000/svg">
<path d="M28.9976 40.5793C29.9559 40.5793 30.8749 40.96 31.5525 41.6376C32.2302 42.3152 32.6108 43.2343 32.6108 44.1926V87.552C32.6108 88.5103 32.2302 89.4293 31.5525 90.1069C30.8749 90.7846 29.9559 91.1652 28.9976 91.1652C28.0393 91.1652 27.1202 90.7846 26.4426 90.1069C25.765 89.4293 25.3843 88.5103 25.3843 87.552V44.1926C25.3843 43.2343 25.765 42.3152 26.4426 41.6376C27.1202 40.96 28.0393 40.5793 28.9976 40.5793ZM47.064 40.5793C48.0223 40.5793 48.9413 40.96 49.6189 41.6376C50.2966 42.3152 50.6772 43.2343 50.6772 44.1926V87.552C50.6772 88.5103 50.2966 89.4293 49.6189 90.1069C48.9413 90.7846 48.0223 91.1652 47.064 91.1652C46.1057 91.1652 45.1866 90.7846 44.509 90.1069C43.8314 89.4293 43.4507 88.5103 43.4507 87.552V44.1926C43.4507 43.2343 43.8314 42.3152 44.509 41.6376C45.1866 40.96 46.1057 40.5793 47.064 40.5793ZM68.7436 44.1926C68.7436 43.2343 68.363 42.3152 67.6853 41.6376C67.0077 40.96 66.0887 40.5793 65.1304 40.5793C64.1721 40.5793 63.253 40.96 62.5754 41.6376C61.8978 42.3152 61.5171 43.2343 61.5171 44.1926V87.552C61.5171 88.5103 61.8978 89.4293 62.5754 90.1069C63.253 90.7846 64.1721 91.1652 65.1304 91.1652C66.0887 91.1652 67.0077 90.7846 67.6853 90.1069C68.363 89.4293 68.7436 88.5103 68.7436 87.552V44.1926Z" fill="#E37373"/>
<path d="M94.0366 22.5129C94.0366 24.4295 93.2752 26.2676 91.92 27.6228C90.5648 28.9781 88.7267 29.7395 86.8101 29.7395H83.1968V94.7785C83.1968 98.6117 81.674 102.288 78.9635 104.998C76.2531 107.709 72.5769 109.232 68.7436 109.232H25.3843C21.5511 109.232 17.8749 107.709 15.1644 104.998C12.4539 102.288 10.9312 98.6117 10.9312 94.7785V29.7395H7.31787C5.40127 29.7395 3.56316 28.9781 2.20792 27.6228C0.852676 26.2676 0.0913086 24.4295 0.0913086 22.5129V15.2863C0.0913086 13.3697 0.852676 11.5316 2.20792 10.1764C3.56316 8.82114 5.40127 8.05977 7.31787 8.05977H32.6108C32.6108 6.14317 33.3722 4.30506 34.7275 2.94982C36.0827 1.59458 37.9208 0.83321 39.8374 0.83321L54.2905 0.83321C56.2071 0.83321 58.0452 1.59458 59.4005 2.94982C60.7557 4.30506 61.5171 6.14317 61.5171 8.05977H86.8101C88.7267 8.05977 90.5648 8.82114 91.92 10.1764C93.2752 11.5316 94.0366 13.3697 94.0366 15.2863V22.5129ZM19.0104 29.7395L18.1577 30.1658V94.7785C18.1577 96.6951 18.9191 98.5332 20.2743 99.8885C21.6296 101.244 23.4677 102.005 25.3843 102.005H68.7436C70.6603 102.005 72.4984 101.244 73.8536 99.8885C75.2088 98.5332 75.9702 96.6951 75.9702 94.7785V30.1658L75.1175 29.7395H19.0104ZM7.31787 22.5129H86.8101V15.2863H7.31787V22.5129Z" fill="#E37373"/>
</svg>
