<svg width="216" height="185" viewBox="0 0 216 185" fill="none" xmlns="http://www.w3.org/2000/svg">
<rect width="215.833" height="185" rx="2" fill="#FFE9E9"/>
<g clip-path="url(#clip0_672_11)">
<path d="M85.9976 70.5793C86.9559 70.5793 87.8749 70.96 88.5525 71.6376C89.2302 72.3152 89.6108 73.2343 89.6108 74.1926V117.552C89.6108 118.51 89.2302 119.429 88.5525 120.107C87.8749 120.785 86.9559 121.165 85.9976 121.165C85.0393 121.165 84.1202 120.785 83.4426 120.107C82.765 119.429 82.3843 118.51 82.3843 117.552V74.1926C82.3843 73.2343 82.765 72.3152 83.4426 71.6376C84.1202 70.96 85.0393 70.5793 85.9976 70.5793ZM104.064 70.5793C105.022 70.5793 105.941 70.96 106.619 71.6376C107.297 72.3152 107.677 73.2343 107.677 74.1926V117.552C107.677 118.51 107.297 119.429 106.619 120.107C105.941 120.785 105.022 121.165 104.064 121.165C103.106 121.165 102.187 120.785 101.509 120.107C100.831 119.429 100.451 118.51 100.451 117.552V74.1926C100.451 73.2343 100.831 72.3152 101.509 71.6376C102.187 70.96 103.106 70.5793 104.064 70.5793ZM125.744 74.1926C125.744 73.2343 125.363 72.3152 124.685 71.6376C124.008 70.96 123.089 70.5793 122.13 70.5793C121.172 70.5793 120.253 70.96 119.575 71.6376C118.898 72.3152 118.517 73.2343 118.517 74.1926V117.552C118.517 118.51 118.898 119.429 119.575 120.107C120.253 120.785 121.172 121.165 122.13 121.165C123.089 121.165 124.008 120.785 124.685 120.107C125.363 119.429 125.744 118.51 125.744 117.552V74.1926Z" fill="#E37373"/>
<path d="M151.037 52.5129C151.037 54.4295 150.275 56.2676 148.92 57.6228C147.565 58.9781 145.727 59.7395 143.81 59.7395H140.197V124.779C140.197 128.612 138.674 132.288 135.964 134.998C133.253 137.709 129.577 139.232 125.744 139.232H82.3843C78.5511 139.232 74.8749 137.709 72.1644 134.998C69.4539 132.288 67.9312 128.612 67.9312 124.779V59.7395H64.3179C62.4013 59.7395 60.5632 58.9781 59.2079 57.6228C57.8527 56.2676 57.0913 54.4295 57.0913 52.5129V45.2863C57.0913 43.3697 57.8527 41.5316 59.2079 40.1764C60.5632 38.8211 62.4013 38.0598 64.3179 38.0598H89.6108C89.6108 36.1432 90.3722 34.3051 91.7275 32.9498C93.0827 31.5946 94.9208 30.8332 96.8374 30.8332H111.291C113.207 30.8332 115.045 31.5946 116.4 32.9498C117.756 34.3051 118.517 36.1432 118.517 38.0598H143.81C145.727 38.0598 147.565 38.8211 148.92 40.1764C150.275 41.5316 151.037 43.3697 151.037 45.2863V52.5129ZM76.0104 59.7395L75.1577 60.1658V124.779C75.1577 126.695 75.9191 128.533 77.2743 129.888C78.6296 131.244 80.4677 132.005 82.3843 132.005H125.744C127.66 132.005 129.498 131.244 130.854 129.888C132.209 128.533 132.97 126.695 132.97 124.779V60.1658L132.117 59.7395H76.0104ZM64.3179 52.5129H143.81V45.2863H64.3179V52.5129Z" fill="#E37373"/>
</g>
<defs>
<clipPath id="clip0_672_11">
<rect width="115.625" height="115.625" fill="white" transform="translate(46.2515 30.8332)"/>
</clipPath>
</defs>
</svg>
