<svg width="83" height="73" viewBox="0 0 83 73" fill="none" xmlns="http://www.w3.org/2000/svg">
<path d="M72.5 70.2012L62.3848 62.2078C62.2297 62.0843 62 62.1957 62 62.3975V64.7257C62 64.8733 62.0686 65.0148 62.182 65.1052L71.9124 72.7945C72.0804 72.9276 72.2879 73 72.5015 73C72.7151 73 72.9226 72.9276 73.0906 72.7945L82.818 65.1052C82.9344 65.0148 83 64.8733 83 64.7257V62.3975C83 62.1957 82.7703 62.0843 82.6152 62.2078L72.5 70.2012ZM72.5 61.0452L62.3848 53.0517C62.2297 52.9282 62 53.0396 62 53.2414V55.5696C62 55.7172 62.0686 55.8587 62.182 55.9491L71.9124 63.6384C72.0804 63.7716 72.2879 63.8439 72.5015 63.8439C72.7151 63.8439 72.9226 63.7716 73.0906 63.6384L82.818 55.9491C82.9344 55.8587 83 55.7172 83 55.5696V53.2414C83 53.0396 82.7703 52.9282 82.6152 53.0517L72.5 61.0452Z" fill="#E37373"/>
<path d="M32.5 0C14.5525 0 0 14.7763 0 33C0 51.2237 14.5525 66 32.5 66C50.4475 66 65 51.2237 65 33C65 14.7763 50.4475 0 32.5 0ZM32.5 60.4018C17.5993 60.4018 5.51339 48.1299 5.51339 33C5.51339 17.8701 17.5993 5.59821 32.5 5.59821C47.4007 5.59821 59.4866 17.8701 59.4866 33C59.4866 48.1299 47.4007 60.4018 32.5 60.4018ZM35.9604 31.2911L34.1177 30.8565V20.9638C36.8744 21.3469 38.5792 23.1 38.8694 25.2509C38.9057 25.5455 39.1523 25.7592 39.4425 25.7592H42.6998C43.0407 25.7592 43.3092 25.4571 43.2801 25.1109C42.8376 20.5219 39.1161 17.5754 34.1468 17.0672V14.6585C34.1468 14.3344 33.8856 14.0692 33.5664 14.0692H31.5279C31.2087 14.0692 30.9475 14.3344 30.9475 14.6585V17.0893C25.8114 17.5975 21.7924 20.4777 21.7924 25.8549C21.7924 30.8344 25.4051 33.2357 29.1992 34.1565L30.9911 34.6205V45.1319C27.7846 44.6973 25.9855 42.9589 25.6155 40.6165C25.572 40.3366 25.3253 40.1304 25.0424 40.1304H21.6908C21.3499 40.1304 21.0815 40.425 21.1105 40.7712C21.4369 44.8225 24.4621 48.5498 30.9185 49.0286V51.3415C30.9185 51.6656 31.1797 51.9308 31.4989 51.9308H33.5592C33.8783 51.9308 34.1395 51.6656 34.1395 51.3342L34.125 48.9991C39.8052 48.4908 43.8677 45.4045 43.8677 39.8652C43.8605 34.7531 40.6613 32.4696 35.9604 31.2911ZM30.9838 30.0978C30.5776 29.9799 30.2366 29.8694 29.8956 29.7295C27.4436 28.8308 26.3047 27.3797 26.3047 25.5087C26.3047 22.8348 28.2997 21.31 30.9838 20.9638V30.0978ZM34.1177 45.154V35.3056C34.3426 35.3719 34.5458 35.4234 34.7561 35.4676C38.1875 36.5283 39.341 38.0016 39.341 40.2629C39.341 43.1431 37.2081 44.8741 34.1177 45.154Z" fill="#E37373"/>
</svg>
