<svg width="622" height="557" viewBox="0 0 622 557" fill="none" xmlns="http://www.w3.org/2000/svg">
<path d="M503.556 88.4444V469.556H122.444V88.4444H503.556ZM533.5 34H92.5C78.8889 34 68 44.8889 68 58.5V499.5C68 510.389 78.8889 524 92.5 524H533.5C544.389 524 558 510.389 558 499.5V58.5C558 44.8889 544.389 34 533.5 34ZM285.778 142.889H449.111V197.333H285.778V142.889ZM285.778 251.778H449.111V306.222H285.778V251.778ZM285.778 360.667H449.111V415.111H285.778V360.667ZM176.889 142.889H231.333V197.333H176.889V142.889ZM176.889 251.778H231.333V306.222H176.889V251.778ZM176.889 360.667H231.333V415.111H176.889V360.667Z" fill="#37A692"/>
</svg>
