<svg width="623" height="557" viewBox="0 0 623 557" fill="none" xmlns="http://www.w3.org/2000/svg">
<path d="M151.26 202.438H193.4V244.577C193.4 245.68 194.503 246.538 195.85 246.538H225.25C226.598 246.538 227.7 245.68 227.7 244.516V202.438H269.84C270.942 202.438 271.8 201.335 271.8 199.988V170.588C271.8 169.24 270.943 168.138 269.779 168.138H227.7V125.998C227.7 124.895 226.598 124.038 225.25 124.038H195.85C194.503 124.038 193.4 124.895 193.4 125.998V168.138H151.26C150.157 168.138 149.3 169.24 149.3 170.588V199.988C149.3 201.335 150.157 202.438 151.26 202.438ZM352.16 202.438H470.74C471.843 202.438 472.7 201.335 472.7 199.988V170.588C472.7 169.24 471.843 168.138 470.679 168.138H352.16C351.058 168.138 350.2 169.24 350.2 170.588V199.988C350.2 201.335 351.058 202.438 352.16 202.438ZM352.16 364.75H470.74C471.843 364.75 472.7 363.648 472.7 362.3V332.9C472.7 331.553 471.843 330.45 470.679 330.45H352.16C351.058 330.45 350.2 331.553 350.2 332.9V362.3C350.2 363.648 351.058 364.75 352.16 364.75ZM352.16 428.45H470.74C471.843 428.45 472.7 427.348 472.7 426V396.6C472.7 395.253 471.843 394.15 470.679 394.15H352.16C351.058 394.15 350.2 395.253 350.2 396.6V426C350.2 427.348 351.058 428.45 352.16 428.45ZM232.294 378.838L269.779 332.961C272.413 329.776 270.207 324.938 266.165 324.938H235.05C233.641 324.938 232.294 325.55 231.436 326.714L210.611 352.194L189.786 326.714C189.348 326.174 188.798 325.736 188.174 325.429C187.55 325.122 186.867 324.955 186.173 324.938H154.996C150.954 324.938 148.749 329.776 151.382 332.961L188.868 378.838L150.464 425.878C147.769 429.063 149.974 433.901 154.016 433.901H185.131C186.54 433.901 187.887 433.289 188.745 432.125L210.489 405.481L232.232 432.125C233.151 433.228 234.499 433.901 235.846 433.901H266.961C271.004 433.901 273.209 429.063 270.575 425.878L232.294 378.838ZM536.4 34H85.6C74.7587 34 66 42.7587 66 53.6V504.4C66 515.241 74.7587 524 85.6 524H536.4C547.241 524 556 515.241 556 504.4V53.6C556 42.7587 547.241 34 536.4 34ZM514.35 482.35H107.65V75.65H514.35V482.35Z" fill="#4A95DB"/>
</svg>
